<svg width="45" height="42" viewBox="0 0 45 42" fill="none" xmlns="http://www.w3.org/2000/svg">
<path d="M0 8.84201C0 3.9587 4.20612 0 9.39463 0H35.2299C40.4184 0 44.6245 3.9587 44.6245 8.84201V33.1575C44.6245 38.0408 40.4184 41.9995 35.2299 41.9995H9.39463C4.20612 41.9995 0 38.0408 0 33.1575V8.84201Z" fill="url(#paint0_linear_0_1)"/>
<path d="M9.39463 0.5H35.2299C40.1712 0.5 44.1245 4.26297 44.1245 8.84201V33.1575C44.1245 37.7366 40.1712 41.4995 35.2299 41.4995H9.39463C4.45327 41.4995 0.5 37.7366 0.5 33.1575V8.84201C0.5 4.26297 4.45327 0.5 9.39463 0.5Z" stroke="url(#paint1_linear_0_1)" stroke-opacity="0.3"/>
<path fill-rule="evenodd" clip-rule="evenodd" d="M37.1483 29.4302C37.7297 28.4791 37.9981 27.3615 37.9981 26.1488L37.9949 26.1523C37.9949 26.1535 37.9949 26.1548 37.9949 26.1561C37.994 27.3665 37.7256 28.482 37.1451 29.4316C36.5637 30.3827 35.7252 31.1436 34.6295 31.7024C34.5467 31.7437 34.4626 31.7835 34.3771 31.8216C34.4637 31.783 34.5489 31.7428 34.6327 31.701C35.7284 31.1422 36.5669 30.3813 37.1483 29.4302ZM26.0564 28.5399H29.5869C30.4687 28.5399 31.198 28.4241 31.752 28.1763C31.1984 28.4231 30.4702 28.5385 29.5901 28.5385H26.057L26.0564 28.5399ZM33.8239 20.6332C33.6217 20.5969 33.4175 20.573 33.2127 20.5611V20.3471C33.9842 20.1569 34.655 19.8477 35.2252 19.4197C35.8178 18.9917 36.2874 18.4449 36.6117 17.7553C36.9583 17.0657 37.1372 16.2811 37.1372 15.3775C37.1372 14.2124 36.8688 13.2137 36.3433 12.3102C35.7955 11.4066 35.0016 10.7171 33.9283 10.2177C33.6487 10.087 33.3804 9.97997 33.0785 9.89675C32.1617 9.59953 31.1219 9.46875 29.9255 9.46875H25.8781L19.8852 24.96H19.6392L13.6687 9.46875H8V32.5451H12.45V17.4819H12.6288L18.2416 32.4381H21.2716L26.9179 17.4819L28.4385 13.4396H29.3106C30.261 13.4396 30.9989 13.6417 31.5244 14.0697C31.5468 14.0935 31.5719 14.1143 31.5971 14.1351C31.6222 14.1559 31.6474 14.1767 31.6697 14.2005C32.2512 14.6999 32.5195 15.3656 32.5195 16.2097C32.5195 16.8161 32.3741 17.3392 32.0723 17.7672C31.8039 18.2071 31.4014 18.5281 30.9318 18.7659C30.5293 18.9561 30.0821 19.0869 29.6125 19.0869L28.3714 22.4395H28.3719L33.2207 20.5625C33.4228 20.5743 33.6243 20.5977 33.8239 20.6332Z" fill="#0D1C2E"/>
<path d="M37.9949 26.1503C37.9949 27.3629 37.7265 28.4805 37.1451 29.4316C36.5637 30.3827 35.7252 31.1436 34.6295 31.7024C33.5114 32.2612 32.1473 32.5227 30.5261 32.5227H24.5332L25.5283 29.8834L26.0538 28.5399H29.5869C30.8504 28.5399 31.8007 28.3022 32.3709 27.779C32.9635 27.2559 33.2654 26.5664 33.2654 25.6866C33.2654 25.0565 33.1201 24.4739 32.8182 23.9984C32.5163 23.4991 32.125 23.1305 31.5771 22.8333C31.0516 22.5717 30.4143 22.4409 29.6876 22.4409H28.3682L33.2207 20.5625C34.0369 20.6101 34.8419 20.8478 35.5575 21.2996C36.273 21.7752 36.8768 22.4053 37.324 23.2256C37.7713 24.0459 37.9949 25.0208 37.9949 26.1622V26.1503Z" fill="url(#paint2_linear_0_1)"/>
<defs>
<linearGradient id="paint0_linear_0_1" x1="22.3123" y1="0" x2="22.3123" y2="41.9995" gradientUnits="userSpaceOnUse">
<stop stop-color="#01D2C7"/>
<stop offset="1" stop-color="#74C365" stop-opacity="0.7"/>
</linearGradient>
<linearGradient id="paint1_linear_0_1" x1="22.3123" y1="0" x2="22.3123" y2="41.9995" gradientUnits="userSpaceOnUse">
<stop stop-color="white"/>
<stop offset="0.515" stop-color="white"/>
</linearGradient>
<linearGradient id="paint2_linear_0_1" x1="32.9219" y1="23.5" x2="31.4219" y2="21.5" gradientUnits="userSpaceOnUse">
<stop stop-color="#D4FFCC"/>
<stop offset="1" stop-color="#B6D9B0"/>
</linearGradient>
</defs>
</svg>
