<svg width="150" height="42" viewBox="0 0 150 42" fill="none" xmlns="http://www.w3.org/2000/svg">
<path fill-rule="evenodd" clip-rule="evenodd" d="M52.8372 7.52344H56.4505L60.2669 16.8343H60.4293L64.2457 7.52344H67.859V21.395H65.0171V12.3683H64.9088L61.3225 21.3273H59.3873L55.8009 12.3413H55.6791V21.395H52.8372V7.52344ZM74.96 21.6108C73.8909 21.6108 72.9706 21.3943 72.1992 20.9612C71.4278 20.5282 70.8324 19.9056 70.4264 19.1072C70.0069 18.3087 69.8038 17.3614 69.8038 16.2652C69.8038 15.169 70.0069 14.2623 70.4264 13.4503C70.8459 12.6383 71.4278 12.0158 72.1857 11.5556C72.9436 11.0955 73.8367 10.879 74.8517 10.879C75.5419 10.879 76.178 10.9872 76.7735 11.2038C77.3689 11.4203 77.8832 11.7451 78.3298 12.1917C78.7764 12.6248 79.1147 13.1796 79.3718 13.8427C79.6154 14.5059 79.7508 15.2773 79.7508 16.1569V16.9554H72.6594V16.9689C72.6594 17.4832 72.7541 17.9298 72.9436 18.3087C73.133 18.6876 73.4037 18.9718 73.7555 19.1748C74.1074 19.3778 74.5269 19.4861 75.0141 19.4861C75.3389 19.4861 75.6231 19.4455 75.8938 19.3508C76.1645 19.256 76.3945 19.1207 76.584 18.9448C76.7734 18.7688 76.9223 18.5388 77.017 18.2816L79.6831 18.4576C79.5478 19.0936 79.2771 19.662 78.8576 20.1357C78.438 20.6094 77.8967 20.9883 77.2471 21.2454C76.5975 21.5161 75.8397 21.6379 74.9735 21.6379L74.96 21.6108ZM72.9571 14.1405C72.782 14.4531 72.6878 14.7888 72.6639 15.169H77.0306C77.0306 14.7495 76.9359 14.3841 76.7599 14.0593C76.584 13.7345 76.3269 13.4909 76.0156 13.3014C75.7043 13.112 75.3254 13.0308 74.9059 13.0308C74.4863 13.0308 74.0803 13.1255 73.742 13.3285C73.4037 13.5315 73.1466 13.8021 72.9571 14.1405ZM88.2892 11.0031V16.9713L88.2757 16.9577C88.2892 17.4314 88.1945 17.8239 88.005 18.1351C87.8156 18.4599 87.572 18.69 87.2743 18.8524C86.9765 19.0148 86.6517 19.096 86.2999 19.096C85.745 19.096 85.3119 18.9065 84.9871 18.5547C84.6623 18.1893 84.4999 17.7021 84.4999 17.0931V10.9896H81.6174V17.6073C81.6174 18.4193 81.7662 19.1231 82.064 19.705C82.3617 20.2869 82.7677 20.747 83.2955 21.0583C83.8233 21.3696 84.4458 21.532 85.136 21.532C85.9209 21.532 86.5841 21.3425 87.1254 20.9771C87.6667 20.5982 88.0592 20.111 88.2892 19.502H88.3975V21.3966H91.1718V11.0031H88.2892ZM93.53 21.3679V7.52344H99.0786C100.094 7.52344 100.946 7.6723 101.636 7.97003C102.313 8.26776 102.827 8.68729 103.179 9.22862C103.517 9.76995 103.693 10.3789 103.693 11.0691C103.693 11.6105 103.585 12.0841 103.369 12.4901C103.152 12.8961 102.854 13.2345 102.475 13.4916C102.097 13.7487 101.663 13.9382 101.19 14.0464V14.1818C101.718 14.2088 102.218 14.3577 102.678 14.6284C103.139 14.899 103.517 15.2915 103.802 15.7787C104.086 16.2659 104.235 16.8613 104.235 17.538C104.235 18.2688 104.059 18.9319 103.693 19.5003C103.328 20.0687 102.8 20.5289 102.083 20.8672C101.379 21.2055 100.5 21.3679 99.4575 21.3679H93.53ZM96.4532 13.3292H98.632C99.038 13.3292 99.3899 13.2615 99.7011 13.1127C100.012 12.9773 100.27 12.7743 100.445 12.5037C100.621 12.2465 100.716 11.9217 100.716 11.5563C100.716 11.0556 100.54 10.6496 100.188 10.3383C99.8365 10.0271 99.3357 9.87822 98.6861 9.87822H96.4532V13.3157V13.3292ZM96.4532 18.9996H98.8485C99.6605 18.9996 100.256 18.8372 100.635 18.5259C101.014 18.2147 101.203 17.7951 101.203 17.2673C101.203 16.8884 101.109 16.5501 100.919 16.2524C100.73 15.9546 100.473 15.7246 100.134 15.5622C99.7959 15.3998 99.3899 15.305 98.9162 15.305H96.4532V18.9861V18.9996ZM107.266 21.2307C107.78 21.4608 108.376 21.5826 109.039 21.5826V21.5555C109.567 21.5555 110.013 21.5014 110.406 21.3525C110.798 21.2036 111.136 21.0142 111.421 20.7706C111.705 20.527 111.935 20.2428 112.097 19.918H112.178V21.366H114.912V14.3558C114.912 13.7333 114.79 13.2055 114.547 12.7589C114.317 12.3123 113.978 11.9469 113.572 11.6627C113.153 11.3785 112.679 11.162 112.151 11.0267C111.624 10.8913 111.069 10.8237 110.487 10.8237C109.648 10.8237 108.931 10.959 108.294 11.2026C107.658 11.4462 107.144 11.8116 106.752 12.2717C106.359 12.7318 106.089 13.2732 105.953 13.9092L108.619 14.1258C108.714 13.7874 108.917 13.5032 109.228 13.2732C109.539 13.0431 109.959 12.9348 110.473 12.9348C110.96 12.9348 111.339 13.0566 111.61 13.2867C111.881 13.5303 112.016 13.8551 112.016 14.2882V14.3288C112.016 14.5453 111.921 14.7212 111.759 14.8295C111.597 14.9513 111.326 15.0325 110.96 15.0866C110.595 15.1408 110.108 15.1949 109.499 15.2626C108.985 15.3167 108.484 15.3979 108.024 15.5197C107.564 15.6415 107.144 15.8174 106.779 16.061C106.413 16.3046 106.129 16.6159 105.913 17.0083C105.696 17.4008 105.588 17.888 105.588 18.4699C105.588 19.1601 105.737 19.7285 106.034 20.1886C106.332 20.6488 106.752 21.0006 107.266 21.2307ZM109.878 19.5932C110.292 19.5914 110.666 19.51 110.988 19.3361C111.312 19.1737 111.569 18.9436 111.759 18.6459C111.948 18.3617 112.043 18.0233 112.043 17.6579V16.5482C111.948 16.6023 111.827 16.6565 111.678 16.7106C111.529 16.7647 111.353 16.8053 111.15 16.8459C111.055 16.8662 110.957 16.8832 110.859 16.9001C110.761 16.917 110.663 16.9339 110.568 16.9542C110.379 16.9813 110.203 17.0083 110.04 17.0354C109.702 17.0895 109.404 17.1707 109.161 17.279C108.903 17.3873 108.714 17.5361 108.565 17.7121C108.43 17.888 108.362 18.1181 108.362 18.3887C108.362 18.7812 108.511 19.0789 108.795 19.2819C109.077 19.4829 109.438 19.5911 109.878 19.5932ZM120.012 15.3855V21.3943H117.129V11.0008H119.877V12.8413H119.998C120.228 12.2323 120.621 11.7586 121.162 11.4068C121.704 11.0549 122.367 10.879 123.138 10.879C123.855 10.879 124.491 11.0414 125.033 11.3526C125.574 11.6639 125.994 12.124 126.291 12.706C126.589 13.2879 126.738 13.9916 126.738 14.7901V21.4078H123.855V15.3043C123.855 14.6683 123.693 14.1675 123.368 13.8157C123.043 13.4503 122.583 13.2744 122.001 13.2744C121.609 13.2744 121.271 13.3556 120.973 13.5315C120.675 13.6939 120.445 13.9375 120.283 14.2623C120.12 14.5871 120.039 14.966 120.025 15.4126L120.012 15.3855ZM130.929 20.9341C131.7 21.3807 132.607 21.6108 133.676 21.6108L133.662 21.6514C134.596 21.6514 135.395 21.4755 136.071 21.1371C136.748 20.7988 137.276 20.3252 137.668 19.7297C138.061 19.1207 138.277 18.4305 138.318 17.632H135.598C135.543 17.9974 135.435 18.3087 135.259 18.5658C135.097 18.823 134.867 19.026 134.61 19.1613C134.339 19.2966 134.041 19.3643 133.716 19.3643C133.27 19.3643 132.877 19.2425 132.539 18.9989C132.214 18.7553 131.957 18.3899 131.768 17.9298C131.592 17.4696 131.497 16.9013 131.497 16.2381C131.497 15.575 131.592 15.0201 131.781 14.56C131.957 14.0999 132.228 13.748 132.553 13.5044C132.877 13.2608 133.27 13.139 133.716 13.139C134.244 13.139 134.677 13.2879 135.002 13.6127C135.327 13.9375 135.53 14.357 135.611 14.8713H138.331C138.291 14.0728 138.074 13.3691 137.668 12.7736C137.262 12.1782 136.721 11.7045 136.044 11.3797C135.368 11.0414 134.569 10.879 133.662 10.879C132.607 10.879 131.7 11.109 130.942 11.5556C130.184 12.0158 129.589 12.6518 129.183 13.4503C128.763 14.2487 128.56 15.1961 128.56 16.2517C128.56 17.3072 128.763 18.2275 129.169 19.0395C129.575 19.8515 130.157 20.474 130.929 20.9341ZM144.886 21.6108C143.83 21.6108 142.923 21.3807 142.165 20.9341C141.394 20.4876 140.812 19.8515 140.393 19.053C139.973 18.2546 139.77 17.3072 139.77 16.2517C139.77 15.1961 139.973 14.2352 140.393 13.4368C140.812 12.6248 141.394 12.0022 142.165 11.5556C142.937 11.109 143.844 10.879 144.886 10.879C145.928 10.879 146.848 11.109 147.606 11.5556C148.377 12.0022 148.959 12.6383 149.379 13.4368C149.798 14.2352 150.001 15.1825 150.001 16.2517C150.001 17.3208 149.798 18.2546 149.379 19.053C148.959 19.865 148.377 20.4876 147.606 20.9341C146.834 21.3807 145.928 21.6108 144.886 21.6108ZM144.899 19.3778C145.373 19.3778 145.779 19.2425 146.104 18.9718C146.428 18.7012 146.672 18.3222 146.834 17.8486C146.997 17.3749 147.078 16.8336 147.078 16.2246C147.078 15.6156 146.997 15.0743 146.834 14.6006C146.672 14.1269 146.428 13.748 146.104 13.4774C145.779 13.2067 145.386 13.0714 144.899 13.0714C144.412 13.0714 144.006 13.2067 143.681 13.4774C143.356 13.748 143.113 14.1269 142.937 14.6006C142.761 15.0743 142.693 15.6156 142.693 16.2246C142.693 16.8336 142.774 17.3749 142.937 17.8486C143.099 18.3222 143.343 18.7012 143.681 18.9718C144.019 19.2425 144.412 19.3778 144.899 19.3778ZM52.4961 35.7777H56.0283L56.0147 35.7642C57.0297 35.7642 57.8958 35.5612 58.6266 35.1687C59.3574 34.7627 59.9123 34.1943 60.3048 33.45C60.6972 32.7057 60.8867 31.799 60.8867 30.7704C60.8867 29.7419 60.6837 28.8487 60.3048 28.1044C59.9258 27.3601 59.3574 26.7917 58.6402 26.3992C57.9229 26.0067 57.0568 25.8037 56.0553 25.8037H52.4961V35.7777ZM55.9471 33.9778H54.6073V27.6172H55.9471C56.5696 27.6172 57.0974 27.7255 57.5169 27.942C57.9364 28.1585 58.2612 28.4969 58.4778 28.9705C58.6943 29.4442 58.8026 30.0396 58.8026 30.784C58.8026 31.5283 58.6943 32.1238 58.4778 32.5974C58.2612 33.0711 57.95 33.4229 57.5169 33.6395C57.0974 33.8695 56.5696 33.9778 55.9471 33.9778ZM64.8383 27.3667C64.527 27.3667 64.2699 27.2585 64.0398 27.0555C63.8233 26.8525 63.715 26.5953 63.715 26.3111C63.715 26.0269 63.8233 25.7833 64.0398 25.5803C64.2564 25.3773 64.527 25.2691 64.8247 25.2691C65.1225 25.2691 65.4067 25.3773 65.6232 25.5803C65.8397 25.7833 65.948 26.0269 65.948 26.3111C65.948 26.5953 65.8397 26.8525 65.6232 27.0555C65.4067 27.2585 65.136 27.3667 64.8383 27.3667ZM63.7962 35.7979V28.3276H65.8668V35.7979H63.7962ZM70.5459 38.4366C71.0195 38.6125 71.5879 38.7072 72.2646 38.7072H72.3052C73.0225 38.7072 73.645 38.599 74.1999 38.3824C74.7412 38.1794 75.1742 37.8546 75.4855 37.4351C75.8103 37.0156 75.9592 36.4878 75.9592 35.8653V28.3137H73.9021V29.5723H73.8209C73.7262 29.3829 73.5909 29.1663 73.4149 28.9633C73.239 28.7468 73.0089 28.5844 72.7247 28.4355C72.4405 28.2867 72.0887 28.219 71.6691 28.219C71.1143 28.219 70.6136 28.3543 70.1534 28.6385C69.7068 28.9227 69.3279 29.3423 69.0572 29.9106C68.773 30.479 68.6377 31.1963 68.6377 32.0354C68.6377 32.8744 68.773 33.5511 69.0437 34.0924C69.3144 34.6337 69.6798 35.0397 70.1399 35.2969C70.6 35.554 71.1007 35.6893 71.6691 35.6893C72.0616 35.6893 72.3999 35.6217 72.6841 35.5134C72.9683 35.4051 73.2119 35.2563 73.3879 35.0668C73.5638 34.8909 73.6991 34.6879 73.7939 34.4849H73.8886V35.8517C73.8886 36.3389 73.7397 36.6908 73.442 36.9073C73.1443 37.1238 72.7653 37.2321 72.3187 37.2321C72.0075 37.2321 71.7503 37.1915 71.5473 37.1103C71.3443 37.0291 71.1684 36.9344 71.0466 36.8126C70.9248 36.6908 70.8301 36.5555 70.776 36.4201L68.8542 36.6772C68.949 37.0562 69.1249 37.3945 69.4091 37.7058C69.6798 38.0035 70.0722 38.2606 70.5459 38.4366ZM73.1578 33.8894C72.9277 34.0518 72.6435 34.133 72.3052 34.133V34.1465C71.9533 34.1465 71.6691 34.0518 71.4391 33.8894C71.209 33.7135 71.0331 33.4699 70.9113 33.1586C70.7895 32.8338 70.7354 32.4549 70.7354 32.0354C70.7354 31.6158 70.7895 31.2369 70.9113 30.9121C71.0331 30.5873 71.209 30.3437 71.4391 30.1542C71.6827 29.9783 71.9669 29.8836 72.3052 29.8836C72.6435 29.8836 72.9277 29.9783 73.1578 30.1542C73.4014 30.3437 73.5773 30.5873 73.6991 30.9121C73.8209 31.2369 73.8886 31.6158 73.8886 32.0489C73.8886 32.482 73.8209 32.8609 73.6991 33.1721C73.5638 33.4834 73.3879 33.727 73.1578 33.8894ZM79.9797 27.3667C79.6684 27.3667 79.4113 27.2585 79.1812 27.0555C78.9647 26.8525 78.8564 26.5953 78.8564 26.3111C78.8564 26.0269 78.9647 25.7833 79.1812 25.5803C79.3978 25.3773 79.6684 25.2691 79.9661 25.2691C80.2639 25.2691 80.5481 25.3773 80.7646 25.5803C80.9811 25.7833 81.0894 26.0269 81.0894 26.3111C81.0894 26.5953 80.9811 26.8525 80.7646 27.0555C80.5481 27.2585 80.2774 27.3667 79.9797 27.3667ZM78.9376 35.7979V28.3276H81.0082V35.7979H78.9376ZM88.0045 29.8975V28.3411H86.5971V26.5548H84.5265V28.3411H83.4979V29.8975H84.5265V33.7815C84.5265 34.2687 84.6212 34.6747 84.8377 34.9995C85.0543 35.3243 85.3385 35.5679 85.7174 35.7167C86.0963 35.8791 86.5294 35.9333 87.0301 35.9197C87.3008 35.9062 87.5308 35.8791 87.7203 35.8385C87.8524 35.8102 87.9582 35.7819 88.0469 35.7582C88.0853 35.7479 88.1206 35.7385 88.1534 35.7303L87.8286 34.1875C87.7744 34.201 87.6932 34.2146 87.5985 34.2281C87.4903 34.2552 87.3955 34.2552 87.3008 34.2552H87.3008C87.1655 34.2552 87.0436 34.2281 86.9354 34.1875C86.8271 34.1469 86.7459 34.0792 86.6918 33.971C86.6241 33.8627 86.5971 33.7138 86.5971 33.5244V29.8975H88.0045ZM92.8654 35.9465C92.3917 35.9465 91.9586 35.8653 91.5932 35.6893C91.2143 35.5269 90.9301 35.2698 90.7136 34.945C90.497 34.6202 90.3888 34.2007 90.3888 33.7135C90.3888 33.2939 90.47 32.9556 90.6188 32.6714C90.7677 32.3872 90.9842 32.1572 91.2414 31.9948C91.4985 31.8188 91.8098 31.697 92.1346 31.6023C92.4729 31.5076 92.8248 31.4534 93.1902 31.4128C93.6019 31.3742 93.9402 31.3234 94.2051 31.2836L94.2457 31.2775C94.5164 31.2369 94.7059 31.1692 94.8277 31.088C94.9495 31.0068 95.0036 30.885 95.0036 30.7226V30.6956C95.0036 30.3843 94.9089 30.1542 94.7194 29.9783C94.5299 29.8024 94.2593 29.7212 93.8939 29.7212C93.5149 29.7212 93.2172 29.8024 93.0007 29.9648C92.7842 30.1272 92.6353 30.3302 92.5676 30.5873L90.6459 30.4384C90.7406 29.9783 90.9301 29.5858 91.2143 29.2611C91.4985 28.9363 91.8639 28.6791 92.324 28.4897C92.7706 28.3137 93.2984 28.219 93.8939 28.219C94.3134 28.219 94.7059 28.2731 95.0848 28.3679C95.4637 28.4626 95.8021 28.6115 96.0998 28.8145C96.3975 29.0175 96.6276 29.2881 96.8035 29.5994C96.9795 29.9106 97.0607 30.3031 97.0607 30.7497V35.7976H95.0983V34.7555H95.0442C94.9224 34.9856 94.76 35.1886 94.557 35.3781C94.354 35.5675 94.1104 35.6893 93.8262 35.7841C93.542 35.8788 93.2172 35.9329 92.8518 35.9329L92.8654 35.9465ZM93.4608 34.5119C93.7585 34.5119 94.0292 34.4578 94.2728 34.3225C94.5029 34.2007 94.6923 34.0383 94.8277 33.8353C94.963 33.6323 95.0307 33.3887 95.0307 33.1315V32.3331C95.0307 32.3331 94.8818 32.4143 94.7735 32.4414C94.6653 32.482 94.5299 32.509 94.3946 32.5361C94.2593 32.5632 94.1104 32.5902 93.9751 32.6038C93.8658 32.6256 93.7566 32.6386 93.6616 32.65L93.6615 32.65L93.5961 32.6579C93.3525 32.6985 93.136 32.7526 92.9601 32.8338C92.7842 32.915 92.6353 33.0233 92.5406 33.1451C92.4458 33.2804 92.3917 33.4428 92.3917 33.6323C92.3917 33.9165 92.5 34.133 92.703 34.2819C92.906 34.4307 93.1766 34.4984 93.4879 34.4984L93.4608 34.5119ZM102.123 35.7962V25.8222H100.052V35.7962H102.123Z" fill="#0D1C2E"/>
<path d="M0 8.84201C0 3.9587 4.20612 0 9.39463 0H35.2299C40.4184 0 44.6245 3.9587 44.6245 8.84201V33.1575C44.6245 38.0408 40.4184 41.9995 35.2299 41.9995H9.39463C4.20612 41.9995 0 38.0408 0 33.1575V8.84201Z" fill="url(#paint0_linear_3525_344)"/>
<path d="M9.39463 0.5H35.2299C40.1712 0.5 44.1245 4.26297 44.1245 8.84201V33.1575C44.1245 37.7366 40.1712 41.4995 35.2299 41.4995H9.39463C4.45327 41.4995 0.5 37.7366 0.5 33.1575V8.84201C0.5 4.26297 4.45327 0.5 9.39463 0.5Z" stroke="url(#paint1_linear_3525_344)" stroke-opacity="0.3"/>
<path fill-rule="evenodd" clip-rule="evenodd" d="M37.2265 29.4302C37.8079 28.4791 38.0762 27.3615 38.0762 26.1488L38.073 26.1523C38.073 26.1535 38.073 26.1548 38.073 26.1561C38.0721 27.3665 37.8037 28.482 37.2233 29.4316C36.6419 30.3827 35.8033 31.1436 34.7076 31.7024C34.6248 31.7437 34.5407 31.7835 34.4553 31.8216C34.5418 31.783 34.627 31.7428 34.7108 31.701C35.8065 31.1422 36.6451 30.3813 37.2265 29.4302ZM26.1346 28.5399H29.665C30.5468 28.5399 31.2761 28.4241 31.8301 28.1763C31.2765 28.4231 30.5483 28.5385 29.6682 28.5385H26.1351L26.1346 28.5399ZM33.902 20.6332C33.6998 20.5969 33.4957 20.573 33.2908 20.5611V20.3471C34.0623 20.1569 34.7331 19.8477 35.3034 19.4197C35.896 18.9917 36.3655 18.4449 36.6898 17.7553C37.0364 17.0657 37.2153 16.2811 37.2153 15.3775C37.2153 14.2124 36.9469 13.2137 36.4214 12.3102C35.8736 11.4066 35.0798 10.7171 34.0064 10.2177C33.7269 10.087 33.4585 9.97997 33.1567 9.89675C32.2398 9.59953 31.2 9.46875 30.0037 9.46875H25.9562L19.9633 24.96H19.7173L13.7468 9.46875H8.07812V32.5451H12.5281V17.4819H12.707L18.3197 32.4381H21.3497L26.996 17.4819L28.5166 13.4396H29.3887C30.3391 13.4396 31.077 13.6417 31.6025 14.0697C31.6249 14.0935 31.65 14.1143 31.6752 14.1351C31.7004 14.1559 31.7255 14.1767 31.7479 14.2005C32.3293 14.6999 32.5976 15.3656 32.5976 16.2097C32.5976 16.8161 32.4523 17.3392 32.1504 17.7672C31.882 18.2071 31.4795 18.5281 31.0099 18.7659C30.6074 18.9561 30.1602 19.0869 29.6906 19.0869L28.4495 22.4395H28.45L33.2988 20.5625C33.5009 20.5743 33.7024 20.5977 33.902 20.6332Z" fill="#0D1C2E"/>
<path d="M38.073 26.1503C38.073 27.3629 37.8047 28.4805 37.2233 29.4316C36.6419 30.3827 35.8033 31.1436 34.7076 31.7024C33.5895 32.2612 32.2255 32.5227 30.6042 32.5227H24.6113L25.6064 29.8834L26.1319 28.5399H29.665C30.9285 28.5399 31.8788 28.3022 32.4491 27.779C33.0416 27.2559 33.3435 26.5664 33.3435 25.6866C33.3435 25.0565 33.1982 24.4739 32.8963 23.9984C32.5944 23.4991 32.2031 23.1305 31.6552 22.8333C31.1297 22.5717 30.4924 22.4409 29.7657 22.4409H28.4463L33.2988 20.5625C34.115 20.6101 34.92 20.8478 35.6356 21.2996C36.3512 21.7752 36.9549 22.4053 37.4022 23.2256C37.8494 24.0459 38.073 25.0208 38.073 26.1622V26.1503Z" fill="url(#paint2_linear_3525_344)"/>
<defs>
<linearGradient id="paint0_linear_3525_344" x1="22.3123" y1="0" x2="22.3123" y2="41.9995" gradientUnits="userSpaceOnUse">
<stop stop-color="#01D2C7"/>
<stop offset="1" stop-color="#74C365" stop-opacity="0.7"/>
</linearGradient>
<linearGradient id="paint1_linear_3525_344" x1="22.3123" y1="0" x2="22.3123" y2="41.9995" gradientUnits="userSpaceOnUse">
<stop stop-color="white"/>
<stop offset="0.515" stop-color="white"/>
</linearGradient>
<linearGradient id="paint2_linear_3525_344" x1="33" y1="23.5" x2="31.5" y2="21.5" gradientUnits="userSpaceOnUse">
<stop stop-color="#D4FFCC"/>
<stop offset="1" stop-color="#B6D9B0"/>
</linearGradient>
</defs>
</svg>
